# xmcd
#
# Track frame offsets: 
#        150
#        17254
#        46085
#        59986
#        78721
#        102208
#        133295
#        173204
#        195511
#        204367
#        221125
#
# Disc length: 3645 seconds
#
# Revision: 0
# Processed by: cddbd v1.5.2PL0 Copyright (c) Steve Scherf et al.
# Submitted via: ExactAudioCopy v0.95b4
#
DISCID=9d0e3b0b
DTITLE=Jeff White - 'Til The Last String Dies
DYEAR=2001
DGENRE=Blues
TTITLE0=All I've Been Thinking Of Lately Is You
TTITLE1=Somewhere In The Western Plains
TTITLE2=Raspberry Wine
TTITLE3=Highwayman
TTITLE4=Temporary Cure For The Blues
TTITLE5=California
TTITLE6=Deidra Dear
TTITLE7=Makeshift Memories
TTITLE8=Please Come Back To Me
TTITLE9=For A While
TTITLE10=Leavin'
EXTD=
EXTT0=
EXTT1=
EXTT2=
EXTT3=
EXTT4=
EXTT5=
EXTT6=
EXTT7=
EXTT8=
EXTT9=
EXTT10=
PLAYORDER=
